# xmcd CD database file generated by Grip 3.2.0
# 
# Track frame offsets:
#       150
#       14705
#       27882
#       39875
#       52170
#       66197
#       78092
#       89510
#       99657
#       115275
#       127615
# 
# Disc length: 1916 seconds
# 
# Revision: 4
# Processed by: cddbd v1.5.1PL2 Copyright (c) Steve Scherf et al.
# Submitted via: Grip 3.2.0
# 
DISCID=87077a0b
DTITLE=Michelle Shocked - Captain Swing
DYEAR=1989
DGENRE=Blues
TTITLE0=God is a Real Estate Developer
TTITLE1=On the Greener Side
TTITLE2=Silent Ways
TTITLE3=Sleep Keeps Me Awake
TTITLE4=The Cement Lament
TTITLE5=(Don't You Mess Around With) My Little Sister
TTITLE6=Looks Like Mona Lisa
TTITLE7=Too Little Too Late
TTITLE8=Streetcorner Ambassador
TTITLE9=Must Be Luff
TTITLE10=Russian Roulette (Bonus)
EXTD=
EXTT0=
EXTT1=
EXTT2=
EXTT3=
EXTT4=
EXTT5=
EXTT6=
EXTT7=
EXTT8=
EXTT9=
EXTT10=
PLAYORDER=
